Coordinates
version=1
nRows=21
nColumns=22
inDegrees=yes

Units are S.I. units (second, meters, Newtons, ...)
If the header above contains a line with 'inDegrees', this indicates whether rotational values are in degrees (yes) or radians (no).

endheader
time	pelvis_tilt	pelvis_list	pelvis_rotation	pelvis_tx	pelvis_ty	pelvis_tz	hip_flexion_r	hip_adduction_r	hip_rotation_r	knee_angle_r	ankle_angle_r	subtalar_angle_r	hip_flexion_l	hip_adduction_l	hip_rotation_l	knee_angle_l	ankle_angle_l	subtalar_angle_l	lumbar_extension	lumbar_bending	lumbar_rotation
      4.03000000	      3.55814073	     -3.98532260	      3.70325705	      0.77398874	      1.00069964	     -0.27232494	     17.39592556	      4.60440750	     -8.40905860	    -22.28347922	      0.21760386	     -0.77722159	      4.24862950	     -9.19869256	     -8.03761620	    -59.54555538	      1.56807061	     -1.24354080	    -11.98809178	      6.36253127	     -3.08822273
      4.04000000	      3.54865296	     -3.83922424	      3.61843784	      0.78118801	      1.00242112	     -0.27128034	     16.80473040	      4.60390593	     -8.29821854	    -22.02358998	      0.50325683	     -0.86491982	      5.29603341	     -8.92465347	     -8.20397761	    -59.78765423	      2.32066199	     -1.20886616	    -12.18126143	      6.21812931	     -2.73681956
      4.05000000	      3.44030214	     -3.67572900	      3.42093079	      0.78814466	      1.00384661	     -0.27014977	     16.37352498	      4.59615351	     -8.09178450	    -21.82995960	      0.76956730	     -1.08698883	      6.39457625	     -8.59664436	     -8.44086744	    -59.82144207	      3.03706255	     -0.97178840	    -12.27689656	      6.02760560	     -2.24163306
      4.06000000	      3.37725370	     -3.50589646	      3.22260375	      0.79490215	      1.00524203	     -0.26913126	     15.90250042	      4.56908290	     -7.89562408	    -21.63055915	      1.02150427	     -1.27197397	      7.38851960	     -8.22753862	     -8.64045266	    -59.62348655	      3.74540041	     -0.57090794	    -12.42849758	      5.83835911	     -1.75046103
      4.07000000	      3.32631934	     -3.34112962	      2.97936957	      0.80150016	      1.00653325	     -0.26812210	     15.44287202	      4.54182345	     -7.70345980	    -21.45430561	      1.28277635	     -1.43510362	      8.29497390	     -7.85625793	     -8.86795548	    -59.20767568	      4.42569882	     -0.06626987	    -12.59050636	      5.64568715	     -1.20403319
      4.08000000	      3.28076354	     -3.19045554	      2.74287211	      0.80789443	      1.00771894	     -0.26718395	     14.98570624	      4.52318058	     -7.48427209	    -21.26774673	      1.49734791	     -1.62511093	      9.14714518	     -7.47862489	     -9.02884880	    -58.61150716	      5.05015111	      0.71313894	    -12.75561503	      5.46935458	     -0.67122539
      4.09000000	      3.24407103	     -3.05805428	      2.48564616	      0.81415686	      1.00879656	     -0.26626694	     14.54376649	      4.51208205	     -7.29708037	    -21.10765630	      1.73162085	     -1.79071456	      9.91159909	     -7.12835661	     -9.19199561	    -57.82800234	      5.65100050	      1.48730416	    -12.91600936	      5.30433801	     -0.11254834
      4.10000000	      3.20990659	     -2.93313363	      2.21214625	      0.82025132	      1.00976563	     -0.26535970	     14.12317208	      4.50678323	     -7.06875933	    -20.97421374	      1.98508902	     -1.94300885	     10.60121713	     -6.79199597	     -9.33425485	    -56.88032392	      6.18921029	      2.18320242	    -13.06841760	      5.13560223	      0.47679813
      4.11000000	      3.17952284	     -2.83317120	      1.96662637	      0.82622000	      1.01064617	     -0.26451921	     13.70703523	      4.51264299	     -6.88603305	    -20.83733377	      2.21759283	     -2.09974107	     11.22097356	     -6.49002409	     -9.41759238	    -55.78657686	      6.71783929	      2.92668763	    -13.20157497	      4.99311935	      1.01372036
      4.12000000	      3.14950454	     -2.75092329	      1.74251480	      0.83207076	      1.01144284	     -0.26371410	     13.30646171	      4.52563756	     -6.72606910	    -20.71603099	      2.45006637	     -2.24886506	     11.76852978	     -6.22099211	     -9.45189063	    -54.55585019	      7.21349326	      3.58258813	    -13.31055299	      4.86076576	      1.52481705
      4.13000000	      3.11942283	     -2.68900331	      1.55189437	      0.83778393	      1.01216973	     -0.26297429	     12.91572126	      4.54880259	     -6.59067915	    -20.59300997	      2.65938638	     -2.39335532	     12.25020334	     -5.97904503	     -9.41306340	    -53.20736504	      7.69778961	      4.15041626	    -13.39845120	      4.75133855	      1.97263910
      4.14000000	      3.08463072	     -2.63893850	      1.39288972	      0.84338181	      1.01282105	     -0.26228270	     12.54958850	      4.57353086	     -6.48156870	    -20.49403510	      2.87655997	     -2.51543319	     12.66888449	     -5.76160245	     -9.32043565	    -51.75263033	      8.16729239	      4.52333969	    -13.45644426	      4.64800838	      2.38831027
      4.15000000	      3.05243949	     -2.60131582	      1.25906443	      0.84885813	      1.01343051	     -0.26163405	     12.19078913	      4.60426645	     -6.38797628	    -20.39658121	      3.08030464	     -2.62990823	     13.01586198	     -5.56374860	     -9.16654527	    -50.20117118	      8.62429795	      4.78645241	    -13.49783547	      4.55446388	      2.75174240
      4.16000000	      2.97411216	     -2.59753428	      1.17830333	      0.85418860	      1.01390438	     -0.26107317	     11.89956588	      4.65764319	     -6.33051553	    -20.31194887	      3.24882132	     -2.68294304	     13.36691475	     -5.39895333	     -8.91745633	    -48.59091811	      9.12029116	      4.86479820	    -13.46586237	      4.50302207	      3.03481639
      4.17000000	      2.98887628	     -2.54945467	      1.06714607	      0.85947053	      1.01453708	     -0.26048143	     11.50999297	      4.66874829	     -6.24829803	    -20.22962226	      3.48267669	     -2.79392996	     13.50813639	     -5.21139839	     -8.71530814	    -46.85351143	      9.51525790	      4.93658079	    -13.52589190	      4.38254537	      3.35633728
      4.18000000	      2.95286064	     -2.53380557	      0.99652086	      0.86462302	      1.01503500	     -0.25996951	     11.18960222	      4.70097468	     -6.21792983	    -20.15367598	      3.68302005	     -2.84338515	     13.66118453	     -5.05573968	     -8.44480732	    -45.08342289	      9.97683874	      4.90334615	    -13.50944601	      4.30420876	      3.59734540
      4.19000000	      2.95330612	     -2.52101987	      0.93493121	      0.86964199	      1.01557769	     -0.25950696	     10.83589780	      4.73746485	     -6.15165307	    -20.07507004	      3.87771468	     -2.87365363	     13.70982069	     -4.89304370	     -8.11800679	    -43.25492559	     10.38995174	      4.79319441	    -13.53081912	      4.22679433	      3.82620689
      4.20000000	      2.93840673	     -2.51407454	      0.87443574	      0.87456916	      1.01606593	     -0.25908163	     10.50548372	      4.77425134	     -6.10985334	    -19.99610887	      4.07164356	     -2.87321629	     13.71711068	     -4.73855310	     -7.77898291	    -41.39906432	     10.80720883	      4.68253858	    -13.52118736	      4.15314861	      4.03138504
      4.21000000	      2.93421293	     -2.51209172	      0.81003725	      0.87937109	      1.01654700	     -0.25870864	     10.17168293	      4.81343569	     -6.05504500	    -19.91826968	      4.25713288	     -2.84957176	     13.65651814	     -4.58032916	     -7.40911692	    -39.52298342	     11.19722415	      4.59088575	    -13.52001738	      4.08547260	      4.22284844
      4.22000000	      2.92365932	     -2.51087766	      0.73583550	      0.88405400	      1.01698247	     -0.25838906	      9.85731864	      4.84774584	     -6.00362432	    -19.85115098	      4.44578032	     -2.81342466	     13.55293529	     -4.41353881	     -7.01241680	    -37.65203996	     11.55285779	      4.56592134	    -13.50659037	      4.01893506	      4.41489542
      4.23000000	      2.91908115	     -2.51120197	      0.64621285	      0.88861364	      1.01739493	     -0.25811474	      9.54328194	      4.87991851	     -5.94554303	    -19.78250588	      4.62924486	     -2.76612892	     13.39340740	     -4.23682691	     -6.58299463	    -35.79879907	     11.85876493	      4.61509865	    -13.49747023	      3.95233222	      4.60385784
